<?xml version="1.0" encoding="UTF-8" standalone="no"?>
<svg
   xmlns:dc="http://purl.org/dc/elements/1.1/"
   xmlns:cc="http://creativecommons.org/ns#"
   xmlns:rdf="http://www.w3.org/1999/02/22-rdf-syntax-ns#"
   xmlns:svg="http://www.w3.org/2000/svg"
   xmlns="http://www.w3.org/2000/svg"
   xmlns:sodipodi="http://sodipodi.sourceforge.net/DTD/sodipodi-0.dtd"
   xmlns:inkscape="http://www.inkscape.org/namespaces/inkscape"
   fill="none"
   viewBox="0 0 348 348"
   version="1.1"
   id="svg72"
   sodipodi:docname="Atbash Cipher.svg"
   inkscape:version="1.0.1 (3bc2e813f5, 2020-09-07)">
  <g
     aria-label="Atbash Cipher"
     id="text86-4-8"
     style="font-size:34.0453px;line-height:1.25;font-family:'Times New Roman';-inkscape-font-specification:'Times New Roman, ';letter-spacing:0px;word-spacing:0px;fill:#000000;stroke-width:1.59588">
    <path
       d="m 133.57703,307.9416 h -6.98195 l -1.39639,1.72886 -1.59587,1.91172 q -0.46546,0.61508 -0.68157,1.11379 -0.16624,0.38235 -0.16624,0.76469 0,0.39897 0.41559,0.74807 0.43222,0.33247 1.41302,0.38234 v 0.61508 h -6.73259 l 0.16623,-0.61508 q 0.89768,-0.14961 1.59588,-0.6317 0.93092,-0.66495 2.67641,-2.74291 l 15.97536,-19.06736 h 0.74806 l -0.74806,18.45229 q -0.0499,1.44626 -0.0499,1.74548 0,1.13041 0.44884,1.64575 0.46546,0.51533 1.52937,0.59845 l -0.16623,0.61508 h -9.7581 l 0.18286,-0.61508 q 1.44626,-0.13299 1.66236,-0.23273 0.46547,-0.23273 0.84781,-0.96418 0.38235,-0.74806 0.46547,-2.57667 z m 0,-1.36314 0.43221,-7.34767 -6.26712,7.34767 z"
       style="font-style:italic;font-weight:bold;fill:#000000;stroke-width:1.59588"
       id="path417" />
    <path
       d="m 152.24542,295.73982 -1.32989,4.52164 h 2.1777 l -0.58183,1.91172 h -2.14445 l -2.77616,9.64174 q -0.26598,0.89767 -0.26598,1.36314 0,0.2161 0.14962,0.38234 0.14961,0.14961 0.33247,0.14961 0.2826,0 0.58183,-0.23273 0.76469,-0.58183 1.77873,-2.02809 l 0.58183,0.36573 q -1.14703,1.99484 -2.5268,2.92576 -1.37976,0.93093 -2.70966,0.93093 -1.13041,0 -1.76211,-0.56521 -0.61507,-0.58182 -0.61507,-1.46288 0,-0.96417 0.43221,-2.47693 l 2.62654,-8.99341 h -2.26082 l 0.33248,-1.23015 q 2.12783,-0.78132 3.59071,-1.82861 1.46288,-1.04729 3.52422,-3.3746 z"
       style="font-style:italic;font-weight:bold;fill:#000000;stroke-width:1.59588"
       id="path419" />
    <path
       d="m 162.70172,292.1491 -2.8759,10.02408 q 1.31327,-1.42964 2.19433,-1.8951 0.88105,-0.48209 1.91172,-0.48209 1.99484,0 2.97564,1.44626 0.99742,1.42964 0.99742,3.30812 0,4.48839 -3.25824,8.01261 -2.89252,3.10863 -6.58298,3.10863 -2.74291,0 -5.80166,-1.6125 l 5.08684,-17.63772 q 0.36572,-1.24678 0.36572,-1.71224 0,-0.39897 -0.33247,-0.6317 -0.46546,-0.33248 -1.41301,-0.28261 l 0.18286,-0.66494 5.55231,-0.9808 z m -6.38349,22.07625 q 0.78131,0.49871 1.41301,0.49871 0.88105,0 1.47951,-0.3491 0.94755,-0.5652 1.97821,-2.04471 1.0473,-1.47951 1.74549,-3.57409 0.6982,-2.09459 0.6982,-4.17255 0,-1.18028 -0.53196,-1.79535 -0.53196,-0.61508 -1.23015,-0.61508 -1.16366,0 -2.02809,1.13041 -0.58183,0.73144 -1.2634,3.10863 z"
       style="font-style:italic;font-weight:bold;fill:#000000;stroke-width:1.59588"
       id="path421" />
    <path
       d="m 185.27668,300.02873 -3.225,11.05474 -0.33247,1.34652 q -0.0499,0.24936 -0.0499,0.36572 0,0.19949 0.13299,0.3491 0.14961,0.14961 0.29922,0.14961 0.3491,0 0.96418,-0.53195 0.24935,-0.21611 1.1969,-1.52938 l 0.58183,0.29922 q -1.18028,2.16108 -2.5268,3.1585 -1.32989,0.9808 -2.8759,0.9808 -0.94755,0 -1.44626,-0.48209 -0.49871,-0.49871 -0.49871,-1.24677 0,-0.64833 0.53196,-2.41044 l 0.39897,-1.34652 q -1.92835,3.30812 -3.70708,4.68788 -1.03067,0.79794 -2.19433,0.79794 -1.52938,0 -2.21095,-1.24678 -0.68157,-1.2634 -0.68157,-2.84265 0,-2.34394 1.42964,-5.36945 1.42964,-3.04213 3.75695,-4.88736 1.91172,-1.52938 3.59072,-1.52938 0.93092,0 1.49613,0.54859 0.5652,0.53195 0.83118,1.96159 l 0.59845,-2.04471 z m -5.31958,3.15849 q 0,-1.34651 -0.41559,-1.94497 -0.29923,-0.41559 -0.81456,-0.41559 -0.51534,0 -1.06392,0.49871 -1.11379,1.03067 -2.41043,4.18917 -1.28003,3.14188 -1.28003,5.43594 0,0.88106 0.28261,1.28003 0.29922,0.38234 0.64832,0.38234 0.74807,0 1.51275,-0.86443 1.09717,-1.23015 1.97822,-3.00889 1.56263,-3.12525 1.56263,-5.55231 z"
       style="font-style:italic;font-weight:bold;fill:#000000;stroke-width:1.59588"
       id="path423" />
    <path
       d="m 198.65874,299.79599 -0.73144,5.13672 h -0.61508 q -0.13299,-1.99484 -1.23015,-3.14187 -1.08054,-1.14704 -2.32732,-1.14704 -0.76469,0 -1.2634,0.44884 -0.49871,0.44884 -0.49871,1.08054 0,0.53196 0.21611,0.99742 0.21611,0.46546 0.96417,1.2634 2.62655,2.82603 3.19175,3.88994 0.56521,1.06392 0.56521,2.27745 0,1.31327 -0.66495,2.49355 -0.66495,1.16366 -1.99484,1.87847 -1.31327,0.6982 -2.74291,0.6982 -0.96417,0 -2.37719,-0.38235 -0.93092,-0.26597 -1.39639,-0.26597 -0.41559,0 -0.64832,0.13299 -0.23273,0.11636 -0.51533,0.51533 h -0.61508 l 0.81456,-5.53569 h 0.53196 q 0.58183,2.01147 1.08054,2.8759 0.51533,0.84781 1.36314,1.36314 0.84781,0.49871 1.62912,0.49871 0.9143,0 1.51275,-0.5652 0.59846,-0.58183 0.59846,-1.37977 0,-0.78131 -0.39897,-1.51275 -0.38235,-0.73145 -1.79536,-2.27745 -1.94497,-2.11121 -2.56005,-3.25824 -0.43221,-0.83118 -0.43221,-1.8951 0,-1.79536 1.29665,-2.99226 1.31327,-1.19691 3.67383,-1.19691 1.03067,0 2.5268,0.36572 0.74806,0.18287 1.1969,0.18287 0.64833,0 1.0473,-0.54859 z"
       style="font-style:italic;font-weight:bold;fill:#000000;stroke-width:1.59588"
       id="path425" />
    <path
       d="m 210.42831,292.1491 -4.32216,14.97794 q 2.2442,-3.30812 3.25824,-4.47177 1.51276,-1.679 2.5933,-2.26082 1.09716,-0.59846 2.09458,-0.59846 0.84781,0 1.44626,0.64833 0.61508,0.6317 0.61508,1.69561 0,0.89768 -0.39897,2.2442 l -2.11121,7.08169 q -0.2826,0.93092 -0.2826,1.24677 0,0.14962 0.11636,0.28261 0.11637,0.11636 0.26598,0.11636 0.19949,0 0.39897,-0.16623 0.53196,-0.4156 1.13041,-1.3299 0.14961,-0.23273 0.48209,-0.69819 l 0.64832,0.36572 q -1.42963,2.36056 -2.70966,3.24162 -1.28002,0.88105 -2.42706,0.88105 -1.03066,0 -1.61249,-0.53196 -0.58183,-0.53196 -0.58183,-1.32989 0,-0.73144 0.39897,-2.07796 l 2.06133,-7.08169 q 0.19949,-0.73144 0.19949,-1.06392 0,-0.18286 -0.14962,-0.31585 -0.13299,-0.14961 -0.31585,-0.14961 -0.59845,0 -1.64574,0.99742 -2.16108,2.04471 -4.32216,6.41674 l -1.4795,4.93724 h -4.12268 l 5.45257,-18.78476 q 0.33247,-1.19691 0.33247,-1.71224 0,-0.41559 -0.33247,-0.64833 -0.43222,-0.31585 -1.32989,-0.26598 l 0.11636,-0.66494 5.53569,-0.9808 z"
       style="font-style:italic;font-weight:bold;fill:#000000;stroke-width:1.59588"
       id="path427" />
    <path
       d="m 251.22283,292.1491 -1.66237,7.16481 h -0.64833 q -0.11636,-2.92577 -1.44626,-4.35541 -1.31327,-1.44626 -3.4411,-1.44626 -2.29407,0 -4.57151,1.9616 -2.27745,1.96159 -3.8567,6.00115 -1.28002,3.27486 -1.28002,6.46661 0,2.85927 1.39639,4.37203 1.41301,1.49613 3.85669,1.49613 1.97822,0 3.60734,-0.86443 1.62912,-0.86444 3.29149,-2.80941 h 0.79794 q -2.06134,3.09201 -4.17254,4.33878 -2.09459,1.24678 -5.13672,1.24678 -4.0728,0 -6.56636,-2.4603 -2.47693,-2.47693 -2.47693,-6.44999 0,-3.72371 1.97822,-7.09831 1.97822,-3.39124 5.6853,-5.4692 3.72371,-2.09458 7.39754,-2.09458 1.39639,0 3.47435,0.59845 1.06392,0.29923 1.47951,0.29923 0.83118,0 1.67899,-0.89768 z"
       style="font-style:italic;font-weight:bold;fill:#000000;stroke-width:1.59588"
       id="path429" />
    <path
       d="m 257.0411,292.1491 q 1.03067,0 1.72887,0.71482 0.71482,0.71482 0.71482,1.72886 0,1.01405 -0.71482,1.72886 -0.71482,0.71482 -1.72887,0.71482 -0.99742,0 -1.71223,-0.71482 -0.71482,-0.71481 -0.71482,-1.72886 0,-1.01404 0.69819,-1.72886 0.71482,-0.71482 1.72886,-0.71482 z m 1.03067,7.64689 -3.40785,11.81944 q -0.2826,1.01405 -0.2826,1.3299 0,0.18286 0.14961,0.34909 0.14961,0.14962 0.31585,0.14962 0.2826,0 0.5652,-0.24936 0.74807,-0.61508 1.79536,-2.22757 l 0.56521,0.33247 q -2.51018,4.37203 -5.33621,4.37203 -1.08053,0 -1.72886,-0.59845 -0.6317,-0.61508 -0.6317,-1.54601 0,-0.61507 0.2826,-1.56262 l 2.3107,-7.94612 q 0.33247,-1.14704 0.33247,-1.72886 0,-0.36573 -0.31585,-0.64833 -0.31585,-0.2826 -0.86443,-0.2826 -0.24936,0 -0.59845,0.0166 l 0.2161,-0.66494 5.63543,-0.91431 z"
       style="font-style:italic;font-weight:bold;fill:#000000;stroke-width:1.59588"
       id="path431" />
    <path
       d="m 260.91442,300.72692 5.50244,-0.93093 h 0.99742 l -0.74806,2.70966 q 1.74549,-1.59587 2.85927,-2.14445 1.11379,-0.56521 2.21095,-0.56521 1.56263,0 2.41044,1.21353 0.8478,1.19691 0.8478,2.94239 0,4.771 -3.30811,8.46146 -2.92577,3.25824 -6.38349,3.25824 -0.61508,0 -1.0473,-0.11637 -0.43221,-0.11636 -1.21352,-0.51533 l -0.86444,2.99226 q -0.46546,1.62912 -0.46546,2.47693 0,0.53196 0.36572,0.83118 0.36572,0.31585 1.71224,0.53196 l -0.14961,0.61508 h -8.94354 l 0.16623,-0.61508 q 1.06392,-0.0332 1.77874,-0.68157 0.69819,-0.64832 1.31327,-2.79278 l 4.05618,-13.98051 q 0.44884,-1.56263 0.44884,-2.21095 0,-0.28261 -0.13299,-0.46547 -0.13299,-0.19948 -0.39897,-0.2826 -0.26598,-0.0831 -1.19691,-0.0831 z m 2.5933,12.76699 q 0.49871,0.81456 0.89768,1.09716 0.39897,0.26598 0.93092,0.26598 0.53196,0 1.03067,-0.2826 0.51534,-0.29923 1.2634,-1.18029 0.74807,-0.88105 1.42964,-2.26082 0.69819,-1.37976 1.11379,-3.12525 0.41559,-1.76211 0.41559,-3.35798 0,-1.28002 -0.46547,-1.86185 -0.44884,-0.58183 -1.09716,-0.58183 -0.58183,0 -1.09716,0.29922 -0.74807,0.43222 -1.76211,1.6125 z"
       style="font-style:italic;font-weight:bold;fill:#000000;stroke-width:1.59588"
       id="path433" />
    <path
       d="m 287.06349,292.1491 -4.32216,14.97794 q 2.2442,-3.30812 3.25824,-4.47177 1.51275,-1.679 2.59329,-2.26082 1.09717,-0.59846 2.09459,-0.59846 0.84781,0 1.44626,0.64833 0.61507,0.6317 0.61507,1.69561 0,0.89768 -0.39896,2.2442 l -2.11121,7.08169 q -0.2826,0.93092 -0.2826,1.24677 0,0.14962 0.11636,0.28261 0.11637,0.11636 0.26598,0.11636 0.19948,0 0.39897,-0.16623 0.53196,-0.4156 1.13041,-1.3299 0.14961,-0.23273 0.48209,-0.69819 l 0.64832,0.36572 q -1.42964,2.36056 -2.70966,3.24162 -1.28002,0.88105 -2.42706,0.88105 -1.03067,0 -1.6125,-0.53196 -0.58182,-0.53196 -0.58182,-1.32989 0,-0.73144 0.39896,-2.07796 l 2.06134,-7.08169 q 0.19949,-0.73144 0.19949,-1.06392 0,-0.18286 -0.14962,-0.31585 -0.13299,-0.14961 -0.31585,-0.14961 -0.59845,0 -1.64574,0.99742 -2.16108,2.04471 -4.32216,6.41674 l -1.47951,4.93724 h -4.12267 l 5.45257,-18.78476 q 0.33247,-1.19691 0.33247,-1.71224 0,-0.41559 -0.33247,-0.64833 -0.43222,-0.31585 -1.3299,-0.26598 l 0.11637,-0.66494 5.53568,-0.9808 z"
       style="font-style:italic;font-weight:bold;fill:#000000;stroke-width:1.59588"
       id="path435" />
    <path
       d="m 300.1297,308.97227 q -0.14962,1.08054 -0.14962,1.77873 0,1.24678 0.71482,1.99484 0.73144,0.74807 1.94497,0.74807 1.16366,0 2.32732,-0.56521 1.18028,-0.5652 2.72628,-1.97822 l 0.49871,0.44884 q -1.91172,2.31069 -3.7237,3.29149 -1.81198,0.9808 -4.00631,0.9808 -2.77615,0 -3.84007,-1.3299 -1.06391,-1.32989 -1.06391,-3.07538 0,-2.72628 1.57925,-5.45256 1.59587,-2.72629 4.32215,-4.37203 2.74291,-1.64575 5.50244,-1.64575 1.39639,0 2.11121,0.66495 0.71482,0.66495 0.71482,1.67899 0,1.21353 -0.6982,2.36057 -0.96417,1.56262 -2.42706,2.52679 -1.46288,0.94755 -3.27486,1.44627 -1.21353,0.33247 -3.25824,0.49871 z m 0.14961,-0.86444 q 1.46288,-0.2161 2.26082,-0.58182 0.81456,-0.38235 1.57925,-1.19691 0.78131,-0.83118 1.34652,-2.07796 0.5652,-1.2634 0.5652,-2.36056 0,-0.46547 -0.26597,-0.73144 -0.24936,-0.26598 -0.64833,-0.26598 -0.79793,0 -1.79536,1.11378 -1.8286,2.02809 -3.04213,6.10089 z"
       style="font-style:italic;font-weight:bold;fill:#000000;stroke-width:1.59588"
       id="path437" />
    <path
       d="m 317.98352,299.79599 -2.51017,9.34251 q 3.092,-6.83233 4.65463,-8.41158 0.9143,-0.93093 1.92834,-0.93093 0.6982,0 1.13041,0.51534 0.43222,0.49871 0.43222,1.42963 0,1.6125 -0.78131,2.70966 -0.49871,0.6982 -1.11379,0.6982 -0.66495,0 -0.99742,-0.61508 -0.33247,-0.61507 -0.46546,-0.71482 -0.13299,-0.11636 -0.28261,-0.11636 -0.16623,0 -0.34909,0.0997 -0.36573,0.19948 -0.96418,0.9808 -0.58183,0.76469 -1.44626,2.57667 -0.86443,1.81198 -1.34652,3.07538 -0.48208,1.24678 -1.34651,4.771 h -4.02294 l 2.74291,-11.0215 q 0.29923,-1.23016 0.29923,-1.62913 0,-0.44883 -0.16624,-0.69819 -0.14961,-0.24936 -0.43221,-0.36572 -0.26598,-0.11637 -1.13041,-0.11637 l 0.14961,-0.48208 5.02035,-1.09717 z"
       style="font-style:italic;font-weight:bold;fill:#000000;stroke-width:1.59588"
       id="path439" />
  </g>
  <metadata
     id="metadata78">
    <rdf:RDF>
      <cc:Work
         rdf:about="">
        <dc:format>image/svg+xml</dc:format>
        <dc:type
           rdf:resource="http://purl.org/dc/dcmitype/StillImage" />
      </cc:Work>
    </rdf:RDF>
  </metadata>
  <defs
     id="defs76" />
  <sodipodi:namedview
     pagecolor="#ffffff"
     bordercolor="#666666"
     borderopacity="1"
     objecttolerance="10"
     gridtolerance="10"
     guidetolerance="10"
     inkscape:pageopacity="0"
     inkscape:pageshadow="2"
     inkscape:window-width="1366"
     inkscape:window-height="706"
     id="namedview74"
     showgrid="false"
     inkscape:zoom="1.545977"
     inkscape:cx="174"
     inkscape:cy="174"
     inkscape:window-x="-8"
     inkscape:window-y="-8"
     inkscape:window-maximized="1"
     inkscape:current-layer="svg72" />
  <path
     stroke="#000"
     stroke-width="2"
     d="M5 6h337v337H5z"
     id="path2" />
  <path
     stroke="#000"
     stroke-width="2"
     d="M283 41c0-9 7-16 15-16 4 0 8 2 11 5s5 7 5 11c0 8-7 15-16 15-8 0-15-7-15-15z"
     id="path4" />
  <path
     fill="#fff"
     d="M116 42q0-12 12-12h9q11 0 11 12v9q0 11-11 11h-9q-12 0-12-11zm12-3q-3 0-3 3v9q0 2 3 2h9q2 0 2-2v-9q0-3-2-3z"
     aria-label="0"
     font-family="Fox Cavalier"
     font-size="46.5"
     font-weight="400"
     letter-spacing="0"
     word-spacing="0"
     id="path6" />
  <path
     fill="#000"
     stroke="#000"
     stroke-width="18.9"
     d="M27 174a5 5 0 015 5 5 5 0 01-5 6 5 5 0 01-6-6 5 5 0 016-5M20 26h216v118H20z"
     id="path8" />
  <path
     fill="#000"
     stroke="#000"
     stroke-width="18.9"
     d="M68 174a5 5 0 015 5 5 5 0 01-6 6 5 5 0 01-5-6 5 5 0 016-5M108 174a5 5 0 016 5 5 5 0 01-6 6 5 5 0 01-5-6 5 5 0 015-5M149 174a5 5 0 015 5 5 5 0 01-5 6 5 5 0 01-6-6 5 5 0 016-5M189 174a5 5 0 016 5 5 5 0 01-6 6 5 5 0 01-5-6 5 5 0 015-5M230 174a5 5 0 015 5 5 5 0 01-5 6 5 5 0 01-5-6 5 5 0 015-5M271 174a5 5 0 015 5 5 5 0 01-5 6 5 5 0 01-6-6 5 5 0 016-5M311 174a5 5 0 016 5 5 5 0 01-6 6 5 5 0 01-5-6 5 5 0 015-5M27 209a5 5 0 015 5 5 5 0 01-5 6 5 5 0 01-6-6 5 5 0 016-5M68 209a5 5 0 015 5 5 5 0 01-6 6 5 5 0 01-5-6 5 5 0 016-5M108 209a5 5 0 016 5 5 5 0 01-6 6 5 5 0 01-5-6 5 5 0 015-5M149 209a5 5 0 015 5 5 5 0 01-5 6 5 5 0 01-6-6 5 5 0 016-5M189 209a5 5 0 016 5 5 5 0 01-6 6 5 5 0 01-5-6 5 5 0 015-5M230 209a5 5 0 015 5 5 5 0 01-5 6 5 5 0 01-5-6 5 5 0 015-5M271 209a5 5 0 015 5 5 5 0 01-5 6 5 5 0 01-6-6 5 5 0 016-5M311 209a5 5 0 016 5 5 5 0 01-6 6 5 5 0 01-5-6 5 5 0 015-5M27 245a5 5 0 015 5 5 5 0 01-5 6 5 5 0 01-6-6 5 5 0 016-5M68 245a5 5 0 015 5 5 5 0 01-6 6 5 5 0 01-5-6 5 5 0 016-5M108 245a5 5 0 016 5 5 5 0 01-6 6 5 5 0 01-5-6 5 5 0 015-5M149 245a5 5 0 015 5 5 5 0 01-5 6 5 5 0 01-6-6 5 5 0 016-5M189 245a5 5 0 016 5 5 5 0 01-6 6 5 5 0 01-5-6 5 5 0 015-5M230 245a5 5 0 015 5 5 5 0 01-5 6 5 5 0 01-5-6 5 5 0 015-5M271 245a5 5 0 015 5 5 5 0 01-5 6 5 5 0 01-6-6 5 5 0 016-5M311 245a5 5 0 016 5 5 5 0 01-6 6 5 5 0 01-5-6 5 5 0 015-5M27 280a5 5 0 015 5 5 5 0 01-5 6 5 5 0 01-6-6 5 5 0 016-5M68 280a5 5 0 015 5 5 5 0 01-6 6 5 5 0 01-5-6 5 5 0 016-5"
     id="path18" />
  <g
     id="text82"
     style="font-size:21.3333px;line-height:1.25;font-family:'Times New Roman';-inkscape-font-specification:'Times New Roman, ';letter-spacing:0px;word-spacing:0px;fill:#ffffff" />
  <g
     aria-label="CHICKEN"
     id="text86"
     style="font-size:39.8523px;line-height:1.25;font-family:'Times New Roman';-inkscape-font-specification:'Times New Roman, ';letter-spacing:0px;word-spacing:0px;fill:#ffffff;stroke-width:1.86808">
    <path
       d="m 59.503883,49.648797 v 9.145791 h -0.758906 q -0.856202,-3.58048 -3.191298,-5.487474 -2.335095,-1.906995 -5.292883,-1.906995 -2.47131,0 -4.533978,1.420516 -2.062667,1.420517 -3.016165,3.716694 -1.225925,2.938329 -1.225925,6.538268 0,3.541562 0.89512,6.460431 0.89512,2.899411 2.802115,4.397764 1.906995,1.478894 4.942619,1.478894 2.490769,0 4.553436,-1.089712 2.082127,-1.089711 4.378305,-3.755612 v 2.276718 q -2.218341,2.315637 -4.631273,3.36643 -2.393473,1.031334 -5.60423,1.031334 -4.222631,0 -7.511224,-1.692944 -3.269134,-1.692945 -5.059374,-4.864783 -1.770781,-3.171838 -1.770781,-6.752318 0,-3.775071 1.965372,-7.16096 1.984832,-3.385889 5.331802,-5.253965 3.36643,-1.868077 7.141501,-1.868077 2.782655,0 5.876657,1.206466 1.79024,0.700529 2.276718,0.700529 0.622693,0 1.070253,-0.44756 0.467019,-0.467019 0.603233,-1.459435 z"
       style="font-weight:bold;stroke-width:1.86808"
       id="path538" />
    <path
       d="m 72.580419,63.951258 v 8.172835 q 0,2.023749 0.21405,2.529687 0.23351,0.505937 0.875661,0.89512 0.66161,0.369723 1.770781,0.369723 h 0.875661 v 0.719988 H 62.520048 v -0.719988 h 0.875661 q 1.148089,0 1.848618,-0.408642 0.505937,-0.272428 0.778365,-0.934038 0.21405,-0.467019 0.21405,-2.45185 V 54.766548 q 0,-2.023749 -0.21405,-2.529686 -0.214051,-0.505938 -0.875661,-0.875661 -0.642151,-0.389183 -1.751322,-0.389183 H 62.520048 V 50.25203 h 13.796524 v 0.719988 h -0.875661 q -1.148089,0 -1.848618,0.408642 -0.505937,0.272428 -0.797824,0.934038 -0.21405,0.467019 -0.21405,2.45185 v 7.472306 h 9.320923 v -7.472306 q 0,-2.023749 -0.21405,-2.529686 Q 81.473241,51.730924 80.811631,51.361201 80.15002,50.972018 79.04085,50.972018 H 78.184648 V 50.25203 h 13.777064 v 0.719988 h -0.856201 q -1.167548,0 -1.848618,0.408642 -0.505937,0.272428 -0.797824,0.934038 -0.21405,0.467019 -0.21405,2.45185 v 17.357545 q 0,2.023749 0.21405,2.529687 0.21405,0.505937 0.875661,0.89512 0.66161,0.369723 1.770781,0.369723 h 0.856201 v 0.719988 H 78.184648 v -0.719988 h 0.856202 q 1.167548,0 1.848617,-0.408642 0.505938,-0.272428 0.797825,-0.934038 0.21405,-0.467019 0.21405,-2.45185 v -8.172835 z"
       style="font-weight:bold;stroke-width:1.86808"
       id="path540" />
    <path
       d="m 107.27605,75.918623 v 0.719988 H 93.479526 v -0.719988 h 0.875661 q 1.148089,0 1.848617,-0.408642 0.505938,-0.272428 0.778365,-0.934038 0.214051,-0.467019 0.214051,-2.45185 V 54.766548 q 0,-2.023749 -0.214051,-2.529686 -0.21405,-0.505938 -0.87566,-0.875661 -0.642152,-0.389183 -1.751322,-0.389183 H 93.479526 V 50.25203 h 13.796524 v 0.719988 h -0.87566 q -1.14809,0 -1.84862,0.408642 -0.50594,0.272428 -0.79782,0.934038 -0.21405,0.467019 -0.21405,2.45185 v 17.357545 q 0,2.023749 0.21405,2.529687 0.23351,0.505937 0.87566,0.89512 0.66161,0.369723 1.77078,0.369723 z"
       style="font-weight:bold;stroke-width:1.86808"
       id="path542" />
    <path
       d="m 134.79126,49.648797 v 9.145791 h -0.75891 q -0.8562,-3.58048 -3.19129,-5.487474 -2.3351,-1.906995 -5.29289,-1.906995 -2.47131,0 -4.53398,1.420516 -2.06266,1.420517 -3.01616,3.716694 -1.22593,2.938329 -1.22593,6.538268 0,3.541562 0.89512,6.460431 0.89512,2.899411 2.80212,4.397764 1.90699,1.478894 4.94262,1.478894 2.49077,0 4.55343,-1.089712 2.08213,-1.089711 4.37831,-3.755612 v 2.276718 q -2.21834,2.315637 -4.63127,3.36643 -2.39348,1.031334 -5.60423,1.031334 -4.22263,0 -7.51123,-1.692944 -3.26913,-1.692945 -5.05937,-4.864783 -1.77078,-3.171838 -1.77078,-6.752318 0,-3.775071 1.96537,-7.16096 1.98483,-3.385889 5.3318,-5.253965 3.36643,-1.868077 7.1415,-1.868077 2.78266,0 5.87666,1.206466 1.79024,0.700529 2.27672,0.700529 0.62269,0 1.07025,-0.44756 0.46702,-0.467019 0.60323,-1.459435 z"
       style="font-weight:bold;stroke-width:1.86808"
       id="path544" />
    <path
       d="m 153.56932,60.351319 9.282,11.617101 q 1.96538,2.45185 3.38589,3.327511 1.03134,0.622692 2.17942,0.622692 v 0.719988 h -13.73814 v -0.719988 q 1.30376,-0.116755 1.67348,-0.408642 0.38919,-0.291887 0.38919,-0.719988 0,-0.817283 -1.79024,-3.074542 l -6.05179,-7.60852 -0.97296,0.817283 v 7.199879 q 0,2.062667 0.23351,2.568605 0.23351,0.505937 0.89512,0.875661 0.66161,0.350264 2.12105,0.350264 v 0.719988 H 137.8658 v -0.719988 h 0.87566 q 1.14809,0 1.84862,-0.408642 0.50594,-0.272428 0.77836,-0.934038 0.21405,-0.467019 0.21405,-2.45185 V 54.766548 q 0,-2.023749 -0.21405,-2.529686 -0.21405,-0.505938 -0.87566,-0.875661 -0.64215,-0.389183 -1.75132,-0.389183 H 137.8658 V 50.25203 h 13.13491 v 0.719988 q -1.34268,0 -2.04321,0.389183 -0.50593,0.272427 -0.79782,0.914579 -0.23351,0.486478 -0.23351,2.490768 v 8.211753 l 9.78794,-7.919866 q 2.04321,-1.654026 2.04321,-2.646441 0,-0.739447 -0.83674,-1.167548 -0.4281,-0.214051 -2.12105,-0.272428 V 50.25203 h 10.29388 v 0.719988 q -1.38159,0.0973 -2.17942,0.505937 -0.77836,0.389183 -3.6194,2.68536 z"
       style="font-weight:bold;stroke-width:1.86808"
       id="path546" />
    <path
       d="m 178.82727,51.769842 v 10.74144 h 0.5254 q 2.51023,0 3.63886,-1.576189 1.12863,-1.57619 1.43997,-4.650732 h 0.73945 v 13.815982 h -0.73945 q -0.23351,-2.257259 -0.99241,-3.697235 -0.73945,-1.439975 -1.73187,-1.926454 -0.99241,-0.505937 -2.87995,-0.505937 v 7.433388 q 0,2.179422 0.17513,2.665901 0.1946,0.486478 0.70053,0.797824 0.50594,0.311346 1.63457,0.311346 h 1.57619 q 3.69723,0 5.91558,-1.712403 2.2378,-1.712404 3.21075,-5.215047 h 0.71999 l -1.18701,8.386885 h -22.8061 v -0.719988 h 0.87566 q 1.14809,0 1.84862,-0.408642 0.50594,-0.272428 0.77837,-0.934038 0.21405,-0.467019 0.21405,-2.45185 V 54.766548 q 0,-1.79024 -0.0973,-2.198881 -0.19459,-0.68107 -0.71999,-1.050793 -0.73944,-0.544856 -2.02375,-0.544856 H 168.7669 V 50.25203 h 22.08612 v 7.803111 h -0.73945 q -0.56432,-2.860492 -1.59565,-4.105876 -1.01188,-1.245384 -2.87995,-1.829158 -1.08971,-0.350265 -4.08642,-0.350265 z"
       style="font-weight:bold;stroke-width:1.86808"
       id="path548" />
    <path
       d="m 204.4744,50.25203 13.01815,16.365129 V 55.272486 q 0,-2.374014 -0.68107,-3.210757 -0.93403,-1.128629 -3.13292,-1.089711 V 50.25203 h 8.71769 v 0.719988 q -1.67348,0.21405 -2.25725,0.564315 -0.56432,0.330805 -0.89512,1.10917 -0.31135,0.758906 -0.31135,2.626983 v 21.969358 h -0.66161 L 200.4269,55.272486 v 16.77377 q 0,2.276718 1.03133,3.074543 1.05079,0.797824 2.39347,0.797824 h 0.6227 v 0.719988 h -9.35985 v -0.719988 q 2.17943,-0.01946 3.03563,-0.89512 0.8562,-0.875661 0.8562,-2.977247 V 53.423868 l -0.56431,-0.700528 q -0.83675,-1.050793 -1.4789,-1.381598 -0.64215,-0.330806 -1.84862,-0.369724 V 50.25203 Z"
       style="font-weight:bold;stroke-width:1.86808"
       id="path550" />
  </g>
  <g
     aria-label="CHICKENS"
     id="text86-4"
     style="font-size:39.8523px;line-height:1.25;font-family:'Times New Roman';-inkscape-font-specification:'Times New Roman, ';letter-spacing:0px;word-spacing:0px;fill:#ffffff;stroke-width:1.86808">
    <path
       d="m 50.08463,86.642137 v 9.145791 h -0.758906 q -0.856202,-3.58048 -3.191297,-5.487475 -2.335096,-1.906995 -5.292884,-1.906995 -2.471309,0 -4.533977,1.420517 -2.062668,1.420516 -3.016165,3.716694 -1.225925,2.938329 -1.225925,6.538271 0,3.54156 0.89512,6.46043 0.89512,2.89941 2.802114,4.39776 1.906995,1.4789 4.94262,1.4789 2.490768,0 4.553436,-1.08972 2.082127,-1.08971 4.378304,-3.75561 v 2.27672 q -2.218341,2.31564 -4.631273,3.36643 -2.393473,1.03133 -5.604229,1.03133 -4.222631,0 -7.511224,-1.69294 -3.269134,-1.69295 -5.059374,-4.86478 -1.770781,-3.17184 -1.770781,-6.75232 0,-3.775073 1.965372,-7.160962 1.984831,-3.385888 5.331802,-5.253965 3.366429,-1.868076 7.1415,-1.868076 2.782656,0 5.876658,1.206466 1.79024,0.700528 2.276718,0.700528 0.622692,0 1.070252,-0.447559 0.467019,-0.46702 0.603233,-1.459435 z"
       style="font-weight:bold;stroke-width:1.86808"
       id="path521" />
    <path
       d="m 63.161166,100.9446 v 8.17283 q 0,2.02375 0.214051,2.52969 0.233509,0.50594 0.875661,0.89512 0.66161,0.36972 1.77078,0.36972 h 0.875661 v 0.71999 H 53.100796 v -0.71999 h 0.875661 q 1.148088,0 1.848617,-0.40864 0.505938,-0.27243 0.778365,-0.93404 0.214051,-0.46702 0.214051,-2.45185 V 91.759888 q 0,-2.02375 -0.214051,-2.529687 -0.21405,-0.505937 -0.87566,-0.875661 -0.642152,-0.389182 -1.751322,-0.389182 H 53.100796 V 87.24537 h 13.796523 v 0.719988 h -0.875661 q -1.148088,0 -1.848617,0.408641 -0.505937,0.272428 -0.797824,0.934039 -0.214051,0.467019 -0.214051,2.45185 v 7.472306 h 9.320924 v -7.472306 q 0,-2.02375 -0.214051,-2.529687 -0.21405,-0.505937 -0.875661,-0.875661 -0.66161,-0.389182 -1.77078,-0.389182 H 68.765396 V 87.24537 H 82.54246 v 0.719988 h -0.856202 q -1.167548,0 -1.848617,0.408641 -0.505937,0.272428 -0.797824,0.934039 -0.214051,0.467019 -0.214051,2.45185 v 17.357542 q 0,2.02375 0.214051,2.52969 0.21405,0.50594 0.87566,0.89512 0.661611,0.36972 1.770781,0.36972 h 0.856202 v 0.71999 H 68.765396 v -0.71999 h 0.856202 q 1.167547,0 1.848617,-0.40864 0.505937,-0.27243 0.797824,-0.93404 0.214051,-0.46702 0.214051,-2.45185 v -8.17283 z"
       style="font-weight:bold;stroke-width:1.86808"
       id="path523" />
    <path
       d="m 97.856797,112.91196 v 0.71999 H 84.060274 v -0.71999 h 0.87566 q 1.148089,0 1.848618,-0.40864 0.505937,-0.27243 0.778365,-0.93404 0.21405,-0.46702 0.21405,-2.45185 V 91.759888 q 0,-2.02375 -0.21405,-2.529687 -0.21405,-0.505937 -0.875661,-0.875661 -0.642151,-0.389182 -1.751322,-0.389182 h -0.87566 V 87.24537 h 13.796523 v 0.719988 h -0.875661 q -1.148089,0 -1.848617,0.408641 -0.505938,0.272428 -0.797825,0.934039 -0.21405,0.467019 -0.21405,2.45185 v 17.357542 q 0,2.02375 0.21405,2.52969 0.23351,0.50594 0.875661,0.89512 0.661611,0.36972 1.770781,0.36972 z"
       style="font-weight:bold;stroke-width:1.86808"
       id="path525" />
    <path
       d="m 125.37201,86.642137 v 9.145791 h -0.75891 q -0.8562,-3.58048 -3.1913,-5.487475 -2.33509,-1.906995 -5.29288,-1.906995 -2.47131,0 -4.53398,1.420517 -2.06267,1.420516 -3.01616,3.716694 -1.22593,2.938329 -1.22593,6.538271 0,3.54156 0.89512,6.46043 0.89512,2.89941 2.80212,4.39776 1.90699,1.4789 4.94262,1.4789 2.49076,0 4.55343,-1.08972 2.08213,-1.08971 4.37831,-3.75561 v 2.27672 q -2.21834,2.31564 -4.63128,3.36643 -2.39347,1.03133 -5.60423,1.03133 -4.22263,0 -7.51122,-1.69294 -3.26913,-1.69295 -5.05937,-4.86478 -1.77078,-3.17184 -1.77078,-6.75232 0,-3.775073 1.96537,-7.160962 1.98483,-3.385888 5.3318,-5.253965 3.36643,-1.868076 7.1415,-1.868076 2.78266,0 5.87666,1.206466 1.79024,0.700528 2.27672,0.700528 0.62269,0 1.07025,-0.447559 0.46702,-0.46702 0.60323,-1.459435 z"
       style="font-weight:bold;stroke-width:1.86808"
       id="path527" />
    <path
       d="m 144.15007,97.344658 9.282,11.617102 q 1.96537,2.45185 3.38589,3.32751 1.03133,0.62269 2.17942,0.62269 v 0.71999 h -13.73814 v -0.71999 q 1.30376,-0.11675 1.67348,-0.40864 0.38918,-0.29189 0.38918,-0.71999 0,-0.81728 -1.79024,-3.07454 l -6.05179,-7.60852 -0.97295,0.81728 v 7.19988 q 0,2.06267 0.23351,2.56861 0.23351,0.50593 0.89512,0.87566 0.66161,0.35026 2.12104,0.35026 v 0.71999 h -13.31004 v -0.71999 h 0.87566 q 1.14809,0 1.84862,-0.40864 0.50593,-0.27243 0.77836,-0.93404 0.21405,-0.46702 0.21405,-2.45185 V 91.759888 q 0,-2.02375 -0.21405,-2.529687 -0.21405,-0.505937 -0.87566,-0.875661 -0.64215,-0.389182 -1.75132,-0.389182 h -0.87566 V 87.24537 h 13.13491 v 0.719988 q -1.34268,0 -2.04321,0.389182 -0.50594,0.272428 -0.79782,0.914579 -0.23351,0.486479 -0.23351,2.490769 v 8.211753 l 9.78794,-7.919866 q 2.04321,-1.654026 2.04321,-2.646442 0,-0.739447 -0.83674,-1.167548 -0.4281,-0.21405 -2.12105,-0.272427 V 87.24537 h 10.29388 v 0.719988 q -1.3816,0.0973 -2.17942,0.505937 -0.77837,0.389183 -3.6194,2.68536 z"
       style="font-weight:bold;stroke-width:1.86808"
       id="path529" />
    <path
       d="m 169.40802,88.763182 v 10.74144 h 0.5254 q 2.51022,0 3.63885,-1.57619 1.12863,-1.576189 1.43998,-4.650732 h 0.73945 v 13.81598 h -0.73945 q -0.23351,-2.25726 -0.99242,-3.69723 -0.73944,-1.43998 -1.73186,-1.92646 -0.99241,-0.50593 -2.87995,-0.50593 v 7.43338 q 0,2.17943 0.17513,2.66591 0.19459,0.48647 0.70053,0.79782 0.50594,0.31135 1.63457,0.31135 h 1.57619 q 3.69723,0 5.91557,-1.71241 2.2378,-1.7124 3.21076,-5.21504 h 0.71999 l -1.18701,8.38688 h -22.8061 v -0.71999 h 0.87566 q 1.14809,0 1.84862,-0.40864 0.50594,-0.27243 0.77836,-0.93404 0.21405,-0.46702 0.21405,-2.45185 V 91.759888 q 0,-1.79024 -0.0973,-2.198882 -0.19459,-0.681069 -0.71999,-1.050793 -0.73945,-0.544855 -2.02375,-0.544855 h -0.87566 V 87.24537 h 22.08611 v 7.803111 h -0.73944 Q 180.13,92.187989 179.09867,90.942605 178.08679,89.69722 176.21872,89.113446 175.129,88.763182 172.1323,88.763182 Z"
       style="font-weight:bold;stroke-width:1.86808"
       id="path531" />
    <path
       d="M 195.05514,87.24537 208.0733,103.6105 V 92.265825 q 0,-2.374014 -0.68107,-3.210756 -0.93404,-1.12863 -3.13292,-1.089711 V 87.24537 h 8.71769 v 0.719988 q -1.67348,0.21405 -2.25726,0.564314 -0.56431,0.330806 -0.89512,1.109171 -0.31134,0.758906 -0.31134,2.626982 v 21.969355 h -0.66161 L 191.00764,92.265825 V 109.0396 q 0,2.27671 1.03134,3.07454 1.05079,0.79782 2.39347,0.79782 h 0.62269 v 0.71999 h -9.35984 v -0.71999 q 2.17942,-0.0195 3.03563,-0.89512 0.8562,-0.87566 0.8562,-2.97724 V 90.417208 l -0.56432,-0.700529 q -0.83674,-1.050793 -1.47889,-1.381598 -0.64215,-0.330805 -1.84862,-0.369723 V 87.24537 Z"
       style="font-weight:bold;stroke-width:1.86808"
       id="path533" />
    <path
       d="m 232.63073,86.642137 0.21405,8.795527 h -0.79782 q -0.56432,-3.308053 -2.78266,-5.312343 -2.19888,-2.023749 -4.76749,-2.023749 -1.98483,0 -3.15238,1.070252 -1.14808,1.050793 -1.14808,2.432391 0,0.875661 0.40864,1.55673 0.56431,0.914579 1.8097,1.809699 0.91458,0.642152 4.22263,2.276719 4.63127,2.276718 6.24638,4.300467 1.59565,2.02375 1.59565,4.63127 0,3.30806 -2.58807,5.70153 -2.5686,2.37401 -6.53826,2.37401 -1.24539,0 -2.35456,-0.25297 -1.10917,-0.25296 -2.78265,-0.95349 -0.93404,-0.38919 -1.53728,-0.38919 -0.50593,0 -1.07025,0.38919 -0.56431,0.38918 -0.91458,1.187 h -0.71999 v -9.96307 h 0.71999 q 0.8562,4.20317 3.2886,6.42151 2.45185,2.19888 5.27342,2.19888 2.17942,0 3.46373,-1.187 1.30376,-1.18701 1.30376,-2.7632 0,-0.93404 -0.50594,-1.8097 -0.48648,-0.87566 -1.49835,-1.65403 -1.01188,-0.79782 -3.58048,-2.06266 -3.59994,-1.77078 -5.17613,-3.01617 -1.57619,-1.245383 -2.43239,-2.782654 -0.83675,-1.537271 -0.83675,-3.385888 0,-3.15238 2.31564,-5.37072 2.31564,-2.218341 5.83774,-2.218341 1.2843,0 2.49077,0.311346 0.91458,0.233509 2.21834,0.875661 1.32322,0.622692 1.84862,0.622692 0.50593,0 0.79782,-0.311346 0.29189,-0.311346 0.54486,-1.498353 z"
       style="font-weight:bold;stroke-width:1.86808"
       id="path535" />
  </g>
  <g
     aria-label="A"
     id="text86-4-7"
     style="font-size:27.409px;line-height:1.25;font-family:'Times New Roman';-inkscape-font-specification:'Times New Roman, ';letter-spacing:0px;word-spacing:0px;fill:#ffffff;stroke-width:1.2848">
    <path
       d="m 28.113645,182.66444 h -6.410601 l -0.762848,1.7666 q -0.374732,0.8833 -0.374732,1.45878 0,0.76285 0.615631,1.1242 0.36135,0.21413 1.779979,0.3212 v 0.49518 h -6.035868 v -0.49518 q 0.976981,-0.14722 1.605996,-0.803 0.629015,-0.66917 1.552463,-2.74358 l 6.490901,-14.48073 h 0.254282 l 6.544435,14.88223 q 0.936831,2.11456 1.539079,2.66328 0.455032,0.41488 1.284797,0.4818 v 0.49518 h -8.779445 v -0.49518 h 0.361349 q 1.057281,0 1.485546,-0.29444 0.294433,-0.21413 0.294433,-0.61563 0,-0.2409 -0.0803,-0.49518 -0.02677,-0.12045 -0.401499,-1.00375 z m -0.455032,-0.99036 -2.703427,-6.25 -2.783726,6.25 z"
       style="font-weight:bold;stroke-width:1.2848"
       id="path518" />
  </g>
  <g
     aria-label="B"
     id="text86-4-7-0"
     style="font-size:27.409px;line-height:1.25;font-family:'Times New Roman';-inkscape-font-specification:'Times New Roman, ';letter-spacing:0px;word-spacing:0px;fill:#ffffff;stroke-width:1.2848">
    <path
       d="m 70.907134,178.16653 q 2.582977,0.60225 3.626874,1.45878 1.49893,1.21788 1.49893,3.15846 0,2.04764 -1.646146,3.38597 -2.020878,1.61938 -5.875269,1.61938 h -9.221094 v -0.49518 q 1.25803,0 1.699679,-0.22751 0.455032,-0.2409 0.629015,-0.61564 0.187366,-0.37473 0.187366,-1.84689 v -11.77731 q 0,-1.47216 -0.187366,-1.84689 -0.173983,-0.38812 -0.629015,-0.61563 -0.455032,-0.22752 -1.699679,-0.22752 v -0.49518 h 8.699145 q 3.118309,0 4.41649,0.5621 1.29818,0.54871 2.047645,1.65953 0.749465,1.09743 0.749465,2.34207 0,1.31157 -0.950215,2.34208 -0.950214,1.01713 -3.345825,1.61938 z m -4.871522,-0.36135 q 1.900429,0 2.79711,-0.42826 0.910065,-0.42827 1.391864,-1.2045 0.481798,-0.77623 0.481798,-1.98073 0,-1.2045 -0.481798,-1.96735 -0.468416,-0.77623 -1.351714,-1.17773 -0.883298,-0.4015 -2.83726,-0.38811 z m 0,1.0439 v 5.82173 l -0.01338,0.66917 q 0,0.7227 0.361349,1.09743 0.374733,0.36135 1.097431,0.36135 1.070664,0 1.967345,-0.46842 0.910065,-0.4818 1.391863,-1.37848 0.481799,-0.91006 0.481799,-2.02087 0,-1.27142 -0.588865,-2.27517 -0.588865,-1.01713 -1.619379,-1.41863 -1.030515,-0.40149 -3.07816,-0.38811 z"
       style="font-weight:bold;stroke-width:1.2848"
       id="path515" />
  </g>
  <g
     id="text144"
     style="font-size:21.3333px;line-height:1.25;font-family:'Times New Roman';-inkscape-font-specification:'Times New Roman, ';letter-spacing:0px;word-spacing:0px" />
  <g
     aria-label="C"
     id="text86-4-7-0-0"
     style="font-size:27.409px;line-height:1.25;font-family:'Times New Roman';-inkscape-font-specification:'Times New Roman, ';letter-spacing:0px;word-spacing:0px;fill:#ffffff;stroke-width:1.2848">
    <path
       d="m 119.31106,169.03911 v 6.29015 h -0.52195 q -0.58886,-2.46253 -2.19486,-3.77409 -1.60599,-1.31157 -3.64026,-1.31157 -1.69967,0 -3.1183,0.97699 -1.41863,0.97698 -2.07442,2.55621 -0.84314,2.02087 -0.84314,4.49678 0,2.43577 0.61563,4.44326 0.61563,1.99411 1.92719,3.02463 1.31157,1.01713 3.39936,1.01713 1.71306,0 3.13169,-0.74947 1.43202,-0.74946 3.01125,-2.58297 v 1.56584 q -1.5257,1.59261 -3.18523,2.31531 -1.64614,0.70932 -3.85439,0.70932 -2.90418,0 -5.16595,-1.16435 -2.2484,-1.16435 -3.47966,-3.34582 -1.21788,-2.18148 -1.21788,-4.64401 0,-2.59636 1.35171,-4.92505 1.3651,-2.3287 3.66703,-3.6135 2.31531,-1.28479 4.91167,-1.28479 1.91381,0 4.04175,0.82976 1.23127,0.4818 1.56585,0.4818 0.42827,0 0.73608,-0.30782 0.3212,-0.32119 0.41488,-1.00374 z"
       style="font-weight:bold;stroke-width:1.2848"
       id="path511" />
  </g>
  <g
     aria-label="D"
     id="text86-4-7-0-4"
     style="font-size:27.409px;line-height:1.25;font-family:'Times New Roman';-inkscape-font-specification:'Times New Roman, ';letter-spacing:0px;word-spacing:0px;fill:#ffffff;stroke-width:1.2848">
    <path
       d="m 140.18784,187.60176 v -0.49518 h 0.60225 q 0.78961,0 1.2045,-0.2409 0.42826,-0.25428 0.62901,-0.68255 0.12045,-0.28105 0.12045,-1.68629 v -11.93791 q 0,-1.39186 -0.14721,-1.73983 -0.14722,-0.34796 -0.60225,-0.60225 -0.44165,-0.26766 -1.2045,-0.26766 h -0.60225 V 169.454 h 8.12367 q 3.25214,0 5.23287,0.8833 2.42237,1.08405 3.66702,3.27891 1.25803,2.19486 1.25803,4.96521 0,1.91381 -0.61563,3.53319 -0.61563,1.60599 -1.59261,2.66327 -0.97699,1.0439 -2.26178,1.6863 -1.27142,0.62902 -3.11831,0.97698 -0.81638,0.1606 -2.56959,0.1606 z m 6.91917,-17.11724 v 14.15953 q 0,1.1242 0.10706,1.37848 0.10707,0.25428 0.36135,0.38812 0.36135,0.20075 1.0439,0.20075 2.23501,0 3.41274,-1.5257 1.606,-2.06103 1.606,-6.39722 0,-3.49304 -1.09743,-5.58083 -0.86992,-1.63277 -2.23501,-2.22163 -0.9636,-0.41488 -3.19861,-0.4015 z"
       style="font-weight:bold;stroke-width:1.2848"
       id="path508" />
  </g>
  <g
     aria-label="E"
     id="text86-4-7-0-9"
     style="font-size:27.409px;line-height:1.25;font-family:'Times New Roman';-inkscape-font-specification:'Times New Roman, ';letter-spacing:0px;word-spacing:0px;fill:#ffffff;stroke-width:1.2848">
    <path
       d="m 188.04531,171.14474 v 7.38758 h 0.36134 q 1.72645,0 2.50268,-1.08405 0.77623,-1.08405 0.99037,-3.19861 h 0.50856 v 9.50215 h -0.50856 q -0.1606,-1.55247 -0.68255,-2.54283 -0.50857,-0.99036 -1.19112,-1.32495 -0.68254,-0.34796 -1.98072,-0.34796 v 5.11242 q 0,1.49893 0.12044,1.83351 0.13384,0.33458 0.4818,0.54872 0.34797,0.21413 1.1242,0.21413 h 1.08405 q 2.54283,0 4.06852,-1.17773 1.53908,-1.17773 2.20825,-3.58673 h 0.49518 l -0.81638,5.76821 h -15.68523 v -0.49519 h 0.60225 q 0.78961,0 1.27141,-0.28105 0.34797,-0.18736 0.53533,-0.64239 0.14722,-0.3212 0.14722,-1.6863 v -11.9379 q 0,-1.23127 -0.0669,-1.51232 -0.13383,-0.46841 -0.49518,-0.7227 -0.50857,-0.37473 -1.39186,-0.37473 h -0.60225 v -0.49518 h 15.19005 v 5.3667 h -0.50857 q -0.38812,-1.96734 -1.09743,-2.82387 -0.69593,-0.85653 -1.98073,-1.25803 -0.74946,-0.2409 -2.81049,-0.2409 z"
       style="font-weight:bold;stroke-width:1.2848"
       id="path505" />
  </g>
  <g
     aria-label="F"
     id="text86-4-7-0-6"
     style="font-size:27.409px;line-height:1.25;font-family:'Times New Roman';-inkscape-font-specification:'Times New Roman, ';letter-spacing:0px;word-spacing:0px;fill:#ffffff;stroke-width:1.2848">
    <path
       d="m 228.86315,171.79159 v 7.4545 h 0.52195 q 1.2045,0 1.96735,-0.36135 0.76284,-0.36135 1.28479,-1.21788 0.53534,-0.85653 0.69593,-2.31531 h 0.46842 v 9.11402 h -0.46842 q -0.25428,-2.58297 -1.39186,-3.39935 -1.1242,-0.82977 -2.55621,-0.82977 h -0.52195 v 5.55407 q 0,1.39186 0.14722,1.73983 0.1606,0.34797 0.60225,0.61563 0.45503,0.25428 1.21788,0.25428 h 0.60225 v 0.49519 h -9.48876 v -0.49519 h 0.60224 q 0.78962,0 1.27142,-0.28104 0.34796,-0.18737 0.53533,-0.6424 0.14722,-0.3212 0.14722,-1.6863 v -11.9379 q 0,-1.39187 -0.14722,-1.73983 -0.14722,-0.34797 -0.60225,-0.60225 -0.44165,-0.26767 -1.2045,-0.26767 h -0.60224 v -0.49518 h 15.31049 v 5.2061 h -0.54871 q -0.18737,-1.83351 -0.9636,-2.71681 -0.76285,-0.88329 -2.22163,-1.24464 -0.803,-0.20075 -2.97109,-0.20075 z"
       style="font-weight:bold;stroke-width:1.2848"
       id="path502" />
  </g>
  <g
     aria-label="G"
     id="text86-4-7-0-5"
     style="font-size:27.409px;line-height:1.25;font-family:'Times New Roman';-inkscape-font-specification:'Times New Roman, ';letter-spacing:0px;word-spacing:0px;fill:#ffffff;stroke-width:1.2848">
    <path
       d="m 278.40255,169.68597 v 6.39722 h -0.49518 q -0.89669,-2.62313 -2.69005,-3.98822 -1.79336,-1.3651 -3.92131,-1.3651 -2.03426,0 -3.38597,1.15096 -1.35171,1.13758 -1.91381,3.18523 -0.5621,2.04765 -0.5621,4.20236 0,2.60974 0.61563,4.57709 0.61563,1.96734 1.98073,2.89079 1.37848,0.92345 3.26552,0.92345 0.65579,0 1.33833,-0.13384 0.69594,-0.14721 1.41863,-0.41488 v -3.77409 q 0,-1.07066 -0.14721,-1.37848 -0.14722,-0.3212 -0.61563,-0.57548 -0.45504,-0.25428 -1.11082,-0.25428 h -0.46841 v -0.49519 h 8.81959 v 0.49519 q -1.00375,0.0669 -1.40524,0.28104 -0.38812,0.20075 -0.60225,0.68255 -0.12045,0.25429 -0.12045,1.24465 v 3.77409 q -1.73983,0.77623 -3.62688,1.16435 -1.87366,0.4015 -3.89454,0.4015 -2.58297,0 -4.29604,-0.69593 -1.69968,-0.70932 -3.01124,-1.8469 -1.29818,-1.15096 -2.03426,-2.58298 -0.93683,-1.84689 -0.93683,-4.13544 0,-4.09529 2.87741,-6.91916 2.87741,-2.82388 7.24036,-2.82388 1.35172,0 2.43576,0.21413 0.58887,0.10707 1.90043,0.61563 1.32495,0.49519 1.56585,0.49519 0.37473,0 0.69593,-0.26767 0.3212,-0.28105 0.58887,-1.0439 z"
       style="font-weight:bold;stroke-width:1.2848"
       id="path499" />
  </g>
  <g
     aria-label="H"
     id="text86-4-7-0-1"
     style="font-size:27.409px;line-height:1.25;font-family:'Times New Roman';-inkscape-font-specification:'Times New Roman, ';letter-spacing:0px;word-spacing:0px;fill:#ffffff;stroke-width:1.2848">
    <path
       d="m 309.03118,179.52268 v 5.62099 q 0,1.39186 0.14721,1.73983 0.1606,0.34797 0.60225,0.61563 0.45504,0.25428 1.21788,0.25428 h 0.60225 v 0.49519 h -9.48876 v -0.49519 h 0.60225 q 0.78961,0 1.27141,-0.28105 0.34797,-0.18736 0.53534,-0.64239 0.14721,-0.3212 0.14721,-1.6863 v -11.9379 q 0,-1.39187 -0.14721,-1.73983 -0.14722,-0.34797 -0.60225,-0.60225 -0.44165,-0.26767 -1.2045,-0.26767 h -0.60225 v -0.49518 h 9.48876 v 0.49518 h -0.60225 q -0.78961,0 -1.27141,0.28105 -0.34797,0.18737 -0.54872,0.6424 -0.14721,0.3212 -0.14721,1.6863 v 5.13918 h 6.4106 v -5.13918 q 0,-1.39187 -0.14722,-1.73983 -0.14721,-0.34797 -0.60225,-0.60225 -0.45503,-0.26767 -1.21788,-0.26767 h -0.58886 v -0.49518 h 9.47538 v 0.49518 h -0.58887 q -0.803,0 -1.27141,0.28105 -0.34797,0.18737 -0.54872,0.6424 -0.14721,0.3212 -0.14721,1.6863 v 11.9379 q 0,1.39186 0.14721,1.73983 0.14722,0.34797 0.60225,0.61563 0.45503,0.25428 1.21788,0.25428 h 0.58887 v 0.49519 h -9.47538 v -0.49519 h 0.58886 q 0.803,0 1.27142,-0.28105 0.34796,-0.18736 0.54871,-0.64239 0.14722,-0.3212 0.14722,-1.6863 v -5.62099 z"
       style="font-weight:bold;stroke-width:1.2848"
       id="path496" />
  </g>
  <g
     aria-label="I"
     id="text86-4-7-4"
     style="font-size:27.409px;line-height:1.25;font-family:'Times New Roman';-inkscape-font-specification:'Times New Roman, ';letter-spacing:0px;word-spacing:0px;fill:#ffffff;stroke-width:1.2848">
    <path
       d="m 31.75231,224.41255 v 0.49518 h -9.48876 v -0.49518 h 0.602248 q 0.789615,0 1.271414,-0.28105 0.347966,-0.18737 0.535332,-0.6424 0.147216,-0.3212 0.147216,-1.6863 v -11.9379 q 0,-1.39186 -0.147216,-1.73983 -0.147217,-0.34797 -0.602249,-0.60225 -0.441649,-0.26766 -1.204497,-0.26766 H 22.26355 v -0.49519 h 9.48876 v 0.49519 h -0.602249 q -0.789614,0 -1.271413,0.28105 -0.347966,0.18736 -0.548716,0.64239 -0.147216,0.3212 -0.147216,1.6863 v 11.9379 q 0,1.39187 0.147216,1.73983 0.1606,0.34797 0.602249,0.61564 0.455032,0.25428 1.21788,0.25428 z"
       style="font-weight:bold;stroke-width:1.2848"
       id="path493" />
  </g>
  <g
     aria-label="J"
     id="text86-4-7-0-66"
     style="font-size:27.409px;line-height:1.25;font-family:'Times New Roman';-inkscape-font-specification:'Times New Roman, ';letter-spacing:0px;word-spacing:0px;fill:#ffffff;stroke-width:1.2848">
    <path
       d="m 65.672724,205.9202 v -0.49519 h 9.64936 v 0.49519 h -0.588866 q -0.802998,0 -1.284797,0.28104 -0.334582,0.18737 -0.535332,0.6424 -0.147216,0.3212 -0.147216,1.6863 v 8.88651 q 0,2.60974 -0.521949,3.80086 -0.521948,1.17773 -1.860278,1.98073 -1.324947,0.78961 -3.198609,0.78961 -2.288545,0 -3.707175,-1.2045 -1.405246,-1.20449 -1.405246,-2.66327 0,-0.93683 0.575482,-1.51232 0.575481,-0.58886 1.405246,-0.58886 0.816382,0 1.365097,0.52195 0.562098,0.52195 0.562098,1.28479 0,0.37474 -0.09368,0.65579 -0.05353,0.13383 -0.428265,0.68254 -0.361349,0.53534 -0.361349,0.76285 0,0.34797 0.347965,0.60225 0.508566,0.37473 1.324947,0.37473 0.575482,0 0.950215,-0.29443 0.374732,-0.29443 0.521948,-0.91006 0.1606,-0.62902 0.1606,-3.46628 v -9.70289 q 0,-1.39186 -0.1606,-1.73983 -0.147216,-0.34797 -0.602248,-0.60225 -0.441649,-0.26766 -1.204497,-0.26766 z"
       style="font-weight:bold;stroke-width:1.2848"
       id="path490" />
  </g>
  <g
     aria-label="K"
     id="text86-4-7-0-0-7"
     style="font-size:27.409px;line-height:1.25;font-family:'Times New Roman';-inkscape-font-specification:'Times New Roman, ';letter-spacing:0px;word-spacing:0px;fill:#ffffff;stroke-width:1.2848">
    <path
       d="m 110.32057,212.18357 6.38383,7.98983 q 1.35171,1.68629 2.32869,2.28854 0.70932,0.42827 1.49893,0.42827 v 0.49518 h -9.44861 v -0.49518 q 0.89668,-0.0803 1.15097,-0.28105 0.26766,-0.20075 0.26766,-0.49518 0,-0.5621 -1.23126,-2.11456 l -4.16221,-5.23287 -0.66916,0.56209 v 4.95183 q 0,1.41863 0.1606,1.76659 0.1606,0.34797 0.61563,0.60225 0.45503,0.2409 1.45878,0.2409 v 0.49518 h -9.154178 v -0.49518 h 0.602248 q 0.78961,0 1.27141,-0.28105 0.34797,-0.18737 0.53534,-0.6424 0.14721,-0.3212 0.14721,-1.68629 v -11.93791 q 0,-1.39186 -0.14721,-1.73983 -0.14722,-0.34796 -0.60225,-0.60225 -0.44165,-0.26766 -1.2045,-0.26766 h -0.602248 v -0.49518 h 9.033728 v 0.49518 q -0.92345,0 -1.40525,0.26766 -0.34796,0.18737 -0.54871,0.62902 -0.1606,0.33458 -0.1606,1.71306 v 5.64775 l 6.7318,-5.447 q 1.40525,-1.13758 1.40525,-1.82013 0,-0.50856 -0.57549,-0.803 -0.29443,-0.14721 -1.45878,-0.18736 v -0.49518 h 7.07977 v 0.49518 q -0.95021,0.0669 -1.49893,0.34796 -0.53533,0.26767 -2.48929,1.8469 z"
       style="font-weight:bold;stroke-width:1.2848"
       id="path487" />
  </g>
  <g
     aria-label="L"
     id="text86-4-7-0-4-4"
     style="font-size:27.409px;line-height:1.25;font-family:'Times New Roman';-inkscape-font-specification:'Times New Roman, ';letter-spacing:0px;word-spacing:0px;fill:#ffffff;stroke-width:1.2848">
    <path
       d="m 156.96014,217.01496 -0.68255,6.37045 H 140.1641 v -0.49519 h 0.60225 q 0.78961,0 1.27141,-0.28104 0.34797,-0.18737 0.53533,-0.6424 0.14722,-0.3212 0.14722,-1.6863 v -11.9379 q 0,-1.39187 -0.14722,-1.73983 -0.14721,-0.34797 -0.60225,-0.60225 -0.44165,-0.26767 -1.20449,-0.26767 h -0.60225 v -0.49518 h 9.67612 v 0.49518 h -0.78961 q -0.78961,0 -1.27141,0.28105 -0.34797,0.18737 -0.54872,0.6424 -0.14722,0.3212 -0.14722,1.6863 v 11.56317 q 0,1.39186 0.1606,1.77998 0.1606,0.37473 0.62902,0.5621 0.33458,0.12045 1.61938,0.12045 h 1.51231 q 1.4454,0 2.409,-0.50857 0.96359,-0.50857 1.65953,-1.606 0.70931,-1.09743 1.33833,-3.23875 z"
       style="font-weight:bold;stroke-width:1.2848"
       id="path484" />
  </g>
  <g
     aria-label="M"
     id="text86-4-7-0-9-9"
     style="font-size:27.409px;line-height:1.25;font-family:'Times New Roman';-inkscape-font-specification:'Times New Roman, ';letter-spacing:0px;word-spacing:0px;fill:#ffffff;stroke-width:1.2848">
    <path
       d="m 189.58754,217.84916 4.92505,-11.96467 h 7.38759 v 0.49518 h -0.58887 q -0.803,0 -1.2848,0.28105 -0.33458,0.18736 -0.53533,0.62901 -0.14722,0.3212 -0.14722,1.67291 v 11.96468 q 0,1.39186 0.14722,1.73983 0.14722,0.34796 0.60225,0.61563 0.45503,0.25428 1.21788,0.25428 h 0.58887 v 0.49518 h -9.47538 v -0.49518 h 0.58886 q 0.803,0 1.2848,-0.28105 0.33458,-0.18737 0.53533,-0.6424 0.14722,-0.3212 0.14722,-1.68629 V 207.4771 l -6.95932,16.55514 h -0.3212 l -7.06638,-16.43469 v 12.78105 q 0,1.33833 0.0669,1.64615 0.17398,0.66916 0.74946,1.09743 0.58887,0.41488 1.83351,0.41488 v 0.49518 h -6.20985 v -0.49518 h 0.18737 q 0.60225,0.0134 1.1242,-0.18737 0.52194,-0.21413 0.78961,-0.5621 0.26767,-0.34796 0.41488,-0.97698 0.0268,-0.14721 0.0268,-1.36509 v -11.48288 q 0,-1.37848 -0.14722,-1.71306 -0.14721,-0.34796 -0.60225,-0.60225 -0.45503,-0.26766 -1.21788,-0.26766 h -0.57548 v -0.49518 h 7.41435 z"
       style="font-weight:bold;stroke-width:1.2848"
       id="path481" />
  </g>
  <g
     aria-label="N"
     id="text86-4-7-0-6-8"
     style="font-size:27.409px;line-height:1.25;font-family:'Times New Roman';-inkscape-font-specification:'Times New Roman, ';letter-spacing:0px;word-spacing:0px;fill:#ffffff;stroke-width:1.2848">
    <path
       d="m 227.33606,205.8845 8.95343,11.25536 v -7.80247 q 0,-1.63276 -0.46842,-2.20824 -0.6424,-0.77623 -2.15471,-0.74947 v -0.49518 h 5.99572 v 0.49518 q -1.15097,0.14722 -1.55246,0.38812 -0.38812,0.22751 -0.61564,0.76285 -0.21413,0.52195 -0.21413,1.80674 v 15.10975 h -0.45503 l -12.27249,-15.10975 v 11.53641 q 0,1.56584 0.70932,2.11456 0.72269,0.54871 1.64614,0.54871 h 0.42827 v 0.49519 h -6.43737 v -0.49519 q 1.49893,-0.0134 2.0878,-0.61563 0.58886,-0.60225 0.58886,-2.04764 v -12.80782 l -0.38812,-0.4818 q -0.57548,-0.7227 -1.01713,-0.95021 -0.44165,-0.22752 -1.27141,-0.25429 v -0.49518 z"
       style="font-weight:bold;stroke-width:1.2848"
       id="path478" />
  </g>
  <g
     aria-label="O"
     id="text86-4-7-0-5-9"
     style="font-size:27.409px;line-height:1.25;font-family:'Times New Roman';-inkscape-font-specification:'Times New Roman, ';letter-spacing:0px;word-spacing:0px;fill:#ffffff;stroke-width:1.2848">
    <path
       d="m 269.90717,205.63022 q 4.33619,-0.1606 7.03962,2.52944 2.71681,2.69005 2.71681,6.7318 0,3.45289 -2.02088,6.07602 -2.67666,3.47966 -7.56156,3.47966 -4.89829,0 -7.57495,-3.31906 -2.11456,-2.62313 -2.11456,-6.22323 0,-4.04176 2.74357,-6.7318 2.75696,-2.70343 6.77195,-2.54283 z m 0.1606,0.85653 q -2.48929,0 -3.78747,2.54283 -1.05728,2.08779 -1.05728,5.99572 0,4.644 1.63276,6.86563 1.13758,1.55246 3.18523,1.55246 1.37848,0 2.30193,-0.66916 1.17773,-0.85653 1.83351,-2.7302 0.65578,-1.88704 0.65578,-4.91167 0,-3.60011 -0.66917,-5.38009 -0.66916,-1.79336 -1.71306,-2.52944 -1.03051,-0.73608 -2.38223,-0.73608 z"
       style="font-weight:bold;stroke-width:1.2848"
       id="path475" />
  </g>
  <g
     aria-label="P"
     id="text86-4-7-0-1-9"
     style="font-size:27.409px;line-height:1.25;font-family:'Times New Roman';-inkscape-font-specification:'Times New Roman, ';letter-spacing:0px;word-spacing:0px;fill:#ffffff;stroke-width:1.2848">
    <path
       d="m 310.06021,215.8149 v 5.03212 q 0,1.47216 0.17398,1.86028 0.18737,0.37473 0.6424,0.60224 0.46841,0.22752 1.69968,0.22752 v 0.49518 h -9.2211 v -0.49518 q 1.25803,0 1.69968,-0.22752 0.45503,-0.2409 0.62902,-0.61563 0.18736,-0.37473 0.18736,-1.84689 v -11.77731 q 0,-1.47216 -0.18736,-1.84689 -0.17399,-0.38812 -0.62902,-0.61564 -0.45503,-0.22751 -1.69968,-0.22751 v -0.49518 h 7.90953 q 3.90793,0 5.60761,1.39186 1.69968,1.39186 1.69968,3.47966 0,1.76659 -1.09744,3.02462 -1.09743,1.25803 -3.02462,1.71307 -1.29818,0.3212 -4.38972,0.3212 z m 0,-8.88652 v 7.84262 q 0.44165,0.0268 0.66916,0.0268 1.63276,0 2.51606,-0.96359 0.8833,-0.97698 0.8833,-3.01125 0,-2.02087 -0.8833,-2.95771 -0.8833,-0.93683 -2.63651,-0.93683 z"
       style="font-weight:bold;stroke-width:1.2848"
       id="path472" />
  </g>
  <g
     aria-label="Q"
     id="text86-4-7-5"
     style="font-size:27.409px;line-height:1.25;font-family:'Times New Roman';-inkscape-font-specification:'Times New Roman, ';letter-spacing:0px;word-spacing:0px;fill:#ffffff;stroke-width:1.2848">
    <path
       d="m 28.995525,258.05721 q 0.615632,1.77998 1.913812,2.67666 1.29818,0.89668 3.252142,0.89668 0.535332,0 1.137581,-0.10707 v 0.81638 q -2.020879,0.50857 -3.613491,0.50857 -2.489294,0 -4.45664,-1.21788 -1.953962,-1.21788 -2.944326,-3.57334 -3.292292,-0.69594 -5.31317,-3.22538 -2.007496,-2.52944 -2.007496,-6.03587 0,-4.06852 2.730194,-6.75857 2.730193,-2.70342 6.93255,-2.70342 4.188973,0 6.905783,2.70342 2.71681,2.70343 2.71681,6.75857 0,3.53319 -2.127945,6.14294 -2.127945,2.60974 -5.125804,3.11831 z M 26.613297,240.3511 q -2.408994,0 -3.720557,2.50268 -1.097431,2.10117 -1.097431,5.98233 0,4.65739 1.646146,6.90578 1.150964,1.56585 3.171842,1.56585 2.034262,0 3.171843,-1.53908 1.646146,-2.20824 1.646146,-6.63812 0,-4.36295 -1.030514,-6.31691 -1.284797,-2.46253 -3.787475,-2.46253 z"
       style="font-weight:bold;stroke-width:1.2848"
       id="path469" />
  </g>
  <g
     aria-label="R"
     id="text86-4-7-0-7"
     style="font-size:27.409px;line-height:1.25;font-family:'Times New Roman';-inkscape-font-specification:'Times New Roman, ';letter-spacing:0px;word-spacing:0px;fill:#ffffff;stroke-width:1.2848">
    <path
       d="m 65.824503,250.87811 v 5.08565 q 0,1.47216 0.173983,1.86028 0.187366,0.37473 0.642398,0.60225 0.455033,0.22751 1.69968,0.22751 v 0.49519 h -9.288011 v -0.49519 q 1.25803,0 1.699679,-0.22751 0.455032,-0.2409 0.629015,-0.61563 0.187366,-0.37474 0.187366,-1.8469 v -11.7773 q 0,-1.47217 -0.187366,-1.8469 -0.173983,-0.38811 -0.629015,-0.61563 -0.455032,-0.22752 -1.699679,-0.22752 v -0.49518 h 8.431479 q 3.292292,0 4.817989,0.45503 1.525696,0.45504 2.489294,1.6863 0.963597,1.21788 0.963597,2.86403 0,2.00749 -1.445396,3.31905 -0.923448,0.82977 -2.582977,1.24465 l 4.362956,6.14294 q 0.856531,1.19111 1.21788,1.48554 0.548716,0.41488 1.271414,0.45503 v 0.49519 h -5.71467 l -5.848502,-8.27088 z m 0,-8.8999 v 7.94968 h 0.762848 q 1.860279,0 2.783727,-0.33458 0.923448,-0.34797 1.445396,-1.23126 0.535332,-0.89668 0.535332,-2.3287 0,-2.07441 -0.976981,-3.06477 -0.963597,-0.99037 -3.118309,-0.99037 z"
       style="font-weight:bold;stroke-width:1.2848"
       id="path466" />
  </g>
  <g
     aria-label="S"
     id="text86-4-7-0-0-4"
     style="font-size:27.409px;line-height:1.25;font-family:'Times New Roman';-inkscape-font-specification:'Times New Roman, ';letter-spacing:0px;word-spacing:0px;fill:#ffffff;stroke-width:1.2848">
    <path
       d="m 113.71987,240.39897 0.14721,6.04925 h -0.54871 q -0.38812,-2.27516 -1.91381,-3.65364 -1.51232,-1.39186 -3.27891,-1.39186 -1.3651,0 -2.1681,0.73608 -0.78961,0.7227 -0.78961,1.67291 0,0.60225 0.28105,1.07067 0.38811,0.62901 1.24464,1.24464 0.62902,0.44165 2.90418,1.56585 3.18523,1.56585 4.29604,2.95771 1.09743,1.39186 1.09743,3.18522 0,2.27517 -1.77998,3.92131 -1.76659,1.63276 -4.49679,1.63276 -0.85653,0 -1.61938,-0.17398 -0.76285,-0.17398 -1.91381,-0.65578 -0.6424,-0.26767 -1.05728,-0.26767 -0.34797,0 -0.73608,0.26767 -0.38812,0.26767 -0.62902,0.81638 h -0.49518 v -6.85225 h 0.49518 q 0.58887,2.89079 2.26178,4.41649 1.6863,1.51231 3.62688,1.51231 1.49893,0 2.38222,-0.81638 0.89668,-0.81638 0.89668,-1.90043 0,-0.6424 -0.34796,-1.24464 -0.33458,-0.60225 -1.03052,-1.13758 -0.69593,-0.54872 -2.46252,-1.41863 -2.47591,-1.21788 -3.55996,-2.07442 -1.08405,-0.85653 -1.67291,-1.91381 -0.57549,-1.05728 -0.57549,-2.32869 0,-2.1681 1.59262,-3.69379 1.59261,-1.5257 4.01499,-1.5257 0.8833,0 1.71306,0.21413 0.62901,0.1606 1.5257,0.60225 0.91006,0.42827 1.27141,0.42827 0.34797,0 0.54872,-0.21414 0.20074,-0.21413 0.37473,-1.03051 z"
       style="font-weight:bold;stroke-width:1.2848"
       id="path463" />
  </g>
  <g
     aria-label="T"
     id="text86-4-7-0-4-6"
     style="font-size:27.409px;line-height:1.25;font-family:'Times New Roman';-inkscape-font-specification:'Times New Roman, ';letter-spacing:0px;word-spacing:0px;fill:#ffffff;stroke-width:1.2848">
    <path
       d="m 156.94676,240.81388 v 4.91167 h -0.4818 q -0.42827,-1.69967 -0.95022,-2.43576 -0.52194,-0.74946 -1.43201,-1.19111 -0.50856,-0.2409 -1.77998,-0.2409 h -1.35171 v 13.99893 q 0,1.39187 0.14722,1.73983 0.16059,0.34797 0.60224,0.61563 0.45504,0.25429 1.23127,0.25429 h 0.60225 v 0.49518 h -9.50215 v -0.49518 h 0.60225 q 0.78962,0 1.27141,-0.28105 0.34797,-0.18737 0.54872,-0.6424 0.14722,-0.3212 0.14722,-1.6863 v -13.99893 h -1.31157 q -1.83351,0 -2.66327,0.77623 -1.16435,1.08405 -1.47217,3.09154 h -0.50856 v -4.91167 z"
       style="font-weight:bold;stroke-width:1.2848"
       id="path460" />
  </g>
  <g
     aria-label="U"
     id="text86-4-7-0-9-5"
     style="font-size:27.409px;line-height:1.25;font-family:'Times New Roman';-inkscape-font-specification:'Times New Roman, ';letter-spacing:0px;word-spacing:0px;fill:#ffffff;stroke-width:1.2848">
    <path
       d="m 181.04886,241.4607 h 9.36831 v 0.49519 h -0.46841 q -1.05728,0 -1.45878,0.22751 -0.38812,0.21413 -0.5621,0.60225 -0.1606,0.38812 -0.1606,1.94058 v 8.88651 q 0,2.43576 0.36135,3.22538 0.37473,0.78961 1.21788,1.31156 0.84315,0.52195 2.12794,0.52195 1.47217,0 2.50268,-0.65578 1.0439,-0.66917 1.55246,-1.83352 0.52195,-1.16434 0.52195,-4.05514 v -7.40096 q 0,-1.21788 -0.25428,-1.73983 -0.25428,-0.52195 -0.6424,-0.7227 -0.60225,-0.30781 -1.69968,-0.30781 v -0.49519 h 6.27677 v 0.49519 h -0.37473 q -0.76285,0 -1.27142,0.30781 -0.50856,0.30782 -0.73608,0.92345 -0.17398,0.42826 -0.17398,1.53908 v 6.8924 q 0,3.19861 -0.42827,4.61724 -0.41488,1.41863 -2.04764,2.60974 -1.63276,1.19112 -4.45664,1.19112 -2.35546,0 -3.64026,-0.62902 -1.75321,-0.85653 -2.47591,-2.19486 -0.7227,-1.33833 -0.7227,-3.60011 v -8.88651 q 0,-1.56585 -0.17398,-1.94058 -0.17398,-0.38812 -0.60225,-0.61563 -0.42826,-0.22752 -1.57923,-0.21413 z"
       style="font-weight:bold;stroke-width:1.2848"
       id="path457" />
  </g>
  <g
     aria-label="V"
     id="text86-4-7-0-6-6"
     style="font-size:27.409px;line-height:1.25;font-family:'Times New Roman';-inkscape-font-specification:'Times New Roman, ';letter-spacing:0px;word-spacing:0px;fill:#ffffff;stroke-width:1.2848">
    <path
       d="m 240.67025,242.10755 v 0.49519 q -0.99037,0.1606 -1.7666,1.05728 -0.5621,0.66916 -1.67291,3.14507 l -6.25,13.8651 h -0.44165 l -6.22324,-14.4272 q -1.12419,-2.60974 -1.51231,-3.06477 -0.37473,-0.45503 -1.43201,-0.57548 v -0.49519 h 8.69914 v 0.49519 h -0.29443 q -1.17773,0 -1.606,0.29443 -0.30781,0.20075 -0.30781,0.58886 0,0.2409 0.10706,0.57549 0.10707,0.3212 0.7227,1.75321 l 3.86778,9.03373 3.58672,-8.04337 q 0.6424,-1.45878 0.78962,-1.95396 0.14721,-0.49518 0.14721,-0.84315 0,-0.4015 -0.21413,-0.70931 -0.21413,-0.30782 -0.62902,-0.46842 -0.57548,-0.22751 -1.52569,-0.22751 v -0.49519 z"
       style="font-weight:bold;stroke-width:1.2848"
       id="path454" />
  </g>
  <g
     aria-label="W"
     id="text86-4-7-0-5-4"
     style="font-size:27.409px;line-height:1.25;font-family:'Times New Roman';-inkscape-font-specification:'Times New Roman, ';letter-spacing:0px;word-spacing:0px;fill:#ffffff;stroke-width:1.2848">
    <path
       d="m 284.54856,242.10758 v 0.49519 q -0.50856,0.0402 -0.85653,0.28105 -0.34796,0.2409 -0.61563,0.73608 -0.0803,0.1606 -0.84315,2.07441 l -5.6879,14.97591 h -0.52195 l -4.49679,-11.697 -4.95182,11.697 h -0.49518 l -5.96895,-14.81531 q -0.91007,-2.23501 -1.27142,-2.70343 -0.36135,-0.46841 -1.21788,-0.54871 v -0.49519 h 7.86938 v 0.49519 q -0.95021,0.0268 -1.27141,0.29443 -0.30782,0.25428 -0.30782,0.6424 0,0.50856 0.65579,2.15471 l 3.55995,8.80621 2.85065,-6.87902 -0.74947,-1.92719 q -0.61563,-1.57923 -0.95021,-2.10118 -0.33459,-0.53533 -0.77623,-0.76285 -0.42827,-0.22751 -1.27142,-0.22751 v -0.49519 h 8.79283 v 0.49519 q -0.92345,0.0134 -1.32495,0.14721 -0.28105,0.0937 -0.44164,0.3212 -0.1606,0.21413 -0.1606,0.49518 0,0.30782 0.60224,1.88705 l 3.30568,8.59208 2.95771,-7.7757 q 0.46841,-1.2045 0.57548,-1.64614 0.10707,-0.44165 0.10707,-0.81639 0,-0.54871 -0.37474,-0.85653 -0.37473,-0.3212 -1.43201,-0.34796 v -0.49519 z"
       style="font-weight:bold;stroke-width:1.2848"
       id="path451" />
  </g>
  <g
     aria-label="X"
     id="text86-4-7-0-1-0"
     style="font-size:27.409px;line-height:1.25;font-family:'Times New Roman';-inkscape-font-specification:'Times New Roman, ';letter-spacing:0px;word-spacing:0px;fill:#ffffff;stroke-width:1.2848">
    <path
       d="m 312.94213,248.96874 5.00535,7.42773 q 1.24465,1.84689 1.7666,2.24839 0.53533,0.38812 1.25803,0.46842 v 0.49518 h -8.84637 v -0.49518 q 1.05728,-0.0803 1.3651,-0.3212 0.30782,-0.2409 0.30782,-0.58887 0,-0.2409 -0.0937,-0.42826 -0.18736,-0.4015 -0.93683,-1.49893 l -2.64989,-3.92131 -2.77034,3.38598 q -1.24465,1.53908 -1.24465,2.08779 0,0.38812 0.3212,0.7227 0.3212,0.33458 0.95021,0.4818 0.28105,0.0803 1.15097,0.0803 v 0.49518 h -6.9727 v -0.49518 q 1.19111,-0.17399 1.87366,-0.6424 0.89668,-0.61563 2.50268,-2.56959 l 3.6001,-4.38973 -4.61724,-6.78533 q -1.13758,-1.67291 -1.29818,-1.86028 -0.36134,-0.44165 -0.70931,-0.62902 -0.34797,-0.18736 -0.9636,-0.28104 v -0.49519 h 9.00696 v 0.49519 h -0.45503 q -0.77623,0 -1.08405,0.25428 -0.30781,0.2409 -0.30781,0.61563 0,0.29443 0.0937,0.50857 l 0.92345,1.39186 2.24839,3.42612 1.91382,-2.34207 q 1.47216,-1.80675 1.47216,-2.52945 0,-0.36135 -0.21413,-0.66916 -0.20075,-0.30782 -0.58887,-0.4818 -0.38812,-0.17398 -1.2045,-0.17398 v -0.49519 h 6.67827 v 0.49519 q -0.78961,0.0134 -1.27141,0.20075 -0.4818,0.17398 -1.03052,0.66916 -0.34796,0.3212 -1.73983,1.99411 z"
       style="font-weight:bold;stroke-width:1.2848"
       id="path448" />
  </g>
  <g
     aria-label="Y"
     id="text86-4-7-5-7"
     style="font-size:27.409px;line-height:1.25;font-family:'Times New Roman';-inkscape-font-specification:'Times New Roman, ';letter-spacing:0px;word-spacing:0px;fill:#ffffff;stroke-width:1.2848">
    <path
       d="m 35.643734,276.36997 v 0.49519 q -0.896681,0.12045 -1.37848,0.52195 -0.669165,0.56209 -2.114561,3.06477 l -3.934691,6.5712 v 4.38972 q 0,1.40525 0.147217,1.75322 0.147216,0.33458 0.575482,0.60225 0.441648,0.25428 1.164347,0.25428 h 1.017131 v 0.49518 H 20.935487 v -0.49518 h 0.950214 q 0.802998,0 1.271413,-0.28105 0.347966,-0.18737 0.548716,-0.6424 0.147216,-0.3212 0.147216,-1.6863 v -3.64025 l -4.269273,-7.7757 q -1.271413,-2.30193 -1.793362,-2.70343 -0.521949,-0.41488 -1.391863,-0.42826 v -0.49519 h 8.699145 v 0.49519 h -0.388116 q -0.789614,0 -1.110814,0.22751 -0.307815,0.22752 -0.307815,0.4818 0,0.4818 1.070664,2.42238 l 3.278908,6.0091 3.265526,-5.47377 q 1.21788,-2.00749 1.21788,-2.66328 0,-0.36134 -0.347966,-0.60224 -0.455032,-0.33459 -1.672912,-0.4015 v -0.49519 z"
       style="font-weight:bold;stroke-width:1.2848"
       id="path445" />
  </g>
  <g
     aria-label="Z"
     id="text86-4-7-0-7-4"
     style="font-size:27.409px;line-height:1.25;font-family:'Times New Roman';-inkscape-font-specification:'Times New Roman, ';letter-spacing:0px;word-spacing:0px;fill:#ffffff;stroke-width:1.2848">
    <path
       d="m 74.890656,275.68183 -10.666491,17.13063 h 3.452892 q 2.449144,0 3.426125,-0.30782 1.592612,-0.4818 2.743576,-1.76659 1.150964,-1.29818 1.592613,-3.46628 h 0.521949 l -0.736082,6.55782 H 58.603178 L 69.283053,276.6722 h -2.690044 q -1.565846,0 -2.061028,0.0937 -0.936831,0.17398 -1.766596,0.69593 -0.816381,0.50857 -1.365097,1.3651 -0.535332,0.85653 -0.843148,2.16809 h -0.495182 l 0.495182,-5.31317 z"
       style="font-weight:bold;stroke-width:1.2848"
       id="path442" />
  </g>
</svg>
